<svg width="187" height="39" viewBox="0 0 187 39" fill="none" xmlns="http://www.w3.org/2000/svg">
<path d="M16.3662 4.82936C17.5032 2.74454 20.4968 2.74453 21.6338 4.82936L23.9256 9.03174C24.3571 9.82292 25.1214 10.3782 26.0072 10.5441L30.7121 11.4252C33.0463 11.8623 33.9713 14.7093 32.3399 16.4349L29.0514 19.9132C28.4323 20.5681 28.1404 21.4666 28.2563 22.3603L28.8723 27.1072C29.1779 29.4621 26.756 31.2217 24.6107 30.2034L20.2865 28.1507C19.4724 27.7642 18.5276 27.7642 17.7135 28.1507L13.3893 30.2034C11.244 31.2217 8.82214 29.4621 9.12772 27.1072L9.74367 22.3603C9.85964 21.4666 9.5677 20.5681 8.94858 19.9132L5.66009 16.4349C4.02866 14.7093 4.95372 11.8623 7.28786 11.4252L11.9928 10.5441C12.8786 10.3782 13.6429 9.82293 14.0744 9.03174L16.3662 4.82936Z" fill="#FFB648"/>
<path d="M54.3662 4.82936C55.5032 2.74454 58.4968 2.74453 59.6338 4.82936L61.9256 9.03174C62.3571 9.82292 63.1214 10.3782 64.0072 10.5441L68.7121 11.4252C71.0463 11.8623 71.9713 14.7093 70.3399 16.4349L67.0514 19.9132C66.4323 20.5681 66.1404 21.4666 66.2563 22.3603L66.8723 27.1072C67.1779 29.4621 64.756 31.2217 62.6107 30.2034L58.2865 28.1507C57.4724 27.7642 56.5276 27.7642 55.7135 28.1507L51.3893 30.2034C49.244 31.2217 46.8221 29.4621 47.1277 27.1072L47.7437 22.3603C47.8596 21.4666 47.5677 20.5681 46.9486 19.9132L43.6601 16.4349C42.0287 14.7093 42.9537 11.8623 45.2879 11.4252L49.9928 10.5441C50.8786 10.3782 51.6429 9.82293 52.0744 9.03174L54.3662 4.82936Z" fill="#FFB648"/>
<path d="M91.3662 4.82936C92.5032 2.74454 95.4968 2.74453 96.6338 4.82936L98.9256 9.03174C99.3571 9.82292 100.121 10.3782 101.007 10.5441L105.712 11.4252C108.046 11.8623 108.971 14.7093 107.34 16.4349L104.051 19.9132C103.432 20.5681 103.14 21.4666 103.256 22.3603L103.872 27.1072C104.178 29.4621 101.756 31.2217 99.6107 30.2034L95.2865 28.1507C94.4724 27.7642 93.5276 27.7642 92.7135 28.1507L88.3893 30.2034C86.244 31.2217 83.8221 29.4621 84.1277 27.1072L84.7437 22.3603C84.8596 21.4666 84.5677 20.5681 83.9486 19.9132L80.6601 16.4349C79.0287 14.7093 79.9537 11.8623 82.2879 11.4252L86.9928 10.5441C87.8786 10.3782 88.6429 9.82293 89.0744 9.03174L91.3662 4.82936Z" fill="#FFB648"/>
<path d="M129.366 4.82936C130.503 2.74454 133.497 2.74453 134.634 4.82936L136.926 9.03174C137.357 9.82292 138.121 10.3782 139.007 10.5441L143.712 11.4252C146.046 11.8623 146.971 14.7093 145.34 16.4349L142.051 19.9132C141.432 20.5681 141.14 21.4666 141.256 22.3603L141.872 27.1072C142.178 29.4621 139.756 31.2217 137.611 30.2034L133.286 28.1507C132.472 27.7642 131.528 27.7642 130.714 28.1507L126.389 30.2034C124.244 31.2217 121.822 29.4621 122.128 27.1072L122.744 22.3603C122.86 21.4666 122.568 20.5681 121.949 19.9132L118.66 16.4349C117.029 14.7093 117.954 11.8623 120.288 11.4252L124.993 10.5441C125.879 10.3782 126.643 9.82293 127.074 9.03174L129.366 4.82936Z" fill="#FFB648"/>
<path d="M165.366 4.82936C166.503 2.74454 169.497 2.74453 170.634 4.82936L172.926 9.03174C173.357 9.82292 174.121 10.3782 175.007 10.5441L179.712 11.4252C182.046 11.8623 182.971 14.7093 181.34 16.4349L178.051 19.9132C177.432 20.5681 177.14 21.4666 177.256 22.3603L177.872 27.1072C178.178 29.4621 175.756 31.2217 173.611 30.2034L169.286 28.1507C168.472 27.7642 167.528 27.7642 166.714 28.1507L162.389 30.2034C160.244 31.2217 157.822 29.4621 158.128 27.1072L158.744 22.3603C158.86 21.4666 158.568 20.5681 157.949 19.9132L154.66 16.4349C153.029 14.7093 153.954 11.8623 156.288 11.4252L160.993 10.5441C161.879 10.3782 162.643 9.82293 163.074 9.03174L165.366 4.82936Z" fill="#FFB648"/>
</svg>
